<svg xmlns="http://www.w3.org/2000/svg" xmlns:xlink="http://www.w3.org/1999/xlink" width="105.201" height="122.854" viewBox="0 0 105.201 122.854">
  <defs>
    <linearGradient id="linear-gradient" x1="0.938" y1="-0.015" x2="0.057" y2="1.021" gradientUnits="objectBoundingBox">
      <stop offset="0" stop-color="#00b2e6"/>
      <stop offset="1" stop-color="#2cbfcd"/>
    </linearGradient>
    <clipPath id="clip-path">
      <path id="Path_7" data-name="Path 7" d="M76.712,178.024l51.794-15.413a4.39,4.39,0,0,1,5.459,3l7.324,24.892a4.445,4.445,0,0,1-2.97,5.521l-16.438,4.9L103.2,244.5a15.052,15.052,0,0,1-27.885,0l-6.171-14.4L58.43,253.81l-5.1-13.052-9.1,13.115-.661,0,12.81-28.759,5.269,12.867,7.795-13.948,8.229,19.2a12.408,12.408,0,0,0,23.177,0l17.71-41.328-3.838,1.141L97.928,242.232a9.359,9.359,0,0,1-17.337,0L70.9,219.505l9.83-3.094,2.143,5,14.851-4.413,4.341-10.128-32.131,9.505L49.24,222.526a4.4,4.4,0,0,1-5.465-3l-7.32-24.882a4.451,4.451,0,0,1,2.975-5.529l17.224-5.125,18.679-43.584a15.053,15.053,0,0,1,27.887,0l6.168,14.4L120.106,131.1l5.095,13.052,9.1-13.114h.661L122.156,159.8l-5.269-12.868-7.795,13.947-8.229-19.2a12.407,12.407,0,0,0-23.176,0L59.976,183l3.839-1.143,16.792-39.184a9.358,9.358,0,0,1,17.337,0l9.8,22.976-9.735,2.9-2.142-5-14.851,4.414Z" transform="translate(-36.271 -131.027)" fill="url(#linear-gradient)"/>
    </clipPath>
  </defs>
  <g id="Group_541" data-name="Group 541" transform="translate(-5239 -3417)">
    <g id="Group_1" data-name="Group 1" transform="translate(5239 3417)" clip-path="url(#clip-path)">
      <rect id="Rectangle_2" data-name="Rectangle 2" width="106.22" height="122.854" transform="translate(-0.51)" fill="url(#linear-gradient)"/>
    </g>
    <path id="Path_8" data-name="Path 8" d="M95.619,172.088h0l1.091,3.725,5.122-1.526L97.558,178.7l3.01,10.275,11.79-3.52-1.111-3.783-6.668,1.989-.83-2.826,6.67-1.989-1.075-3.665-6.726,2.008-.808-2.961,6.669-1.989-1.073-3.668ZM75.653,178.05h0l11.025,15.069,6.611-1.972,1.063-18.679L88.875,174.1l-.729,11.651-6.835-9.393Zm-8.86,2.645h0l5.122-1.531,3.841,13.1,6.609-1.973,1.111,3.784-11.733,3.5Zm-7.8,2.327h0l4.951,16.884,5.179-1.547-4.948-16.884Zm-2.488.743h0l1.091,3.724-7.262,2.17,5.651,1.89c2.429.842,4.566,2.273,5.224,4.453a4.478,4.478,0,0,1-2.67,5.518l-9.484,2.831-1.111-3.785c2.782-.832,6.229-1.859,9.01-2.689l-6.427-2.313c-2.875-.82-4.568-1.826-5.274-4.176a3.963,3.963,0,0,1,2.8-5.1Zm53.1-15.824,1.07,3.713c2.865-.877,5.476-1.642,8.342-2.521.647-.128,1.435.638,1.574,1.2a1.335,1.335,0,0,1-.658,1.671l-3.3,1.008-.86-2.936-4.169,4.449,2.985,10.26,5.053-1.51-1.936-6.6,6.684,5.123,5.572-1.663c-2.32-1.661-4.523-3.354-6.842-5.017,2.008-.6,3.436-3.606,2.671-6.214-.668-2.213-3.547-4.714-6.1-3.974Z" transform="translate(5204.859 3294.561)" fill="#fff"/>
  </g>
</svg>
